<mxfile host="app.diagrams.net" modified="2023-11-25T12:39:15.314Z" agent="Mozilla/5.0 (Windows NT 10.0; Win64; x64) AppleWebKit/537.36 (KHTML, like Gecko) Chrome/116.0.5845.686 YaBrowser/23.9.5.686 Yowser/2.5 Safari/537.36" etag="1Wca0OrlrqJLAaFh0aGN" version="22.1.4" type="device">
  <diagram name="Страница — 1" id="O2L_s_Bmh01QVNMG9ZfW">
    <mxGraphModel dx="746" dy="711" grid="1" gridSize="10" guides="1" tooltips="1" connect="1" arrows="1" fold="1" page="1" pageScale="1" pageWidth="827" pageHeight="1169" math="0" shadow="0">
      <root>
        <mxCell id="0" />
        <mxCell id="1" parent="0" />
        <mxCell id="_iVS5pnN7EHjjZFN2fSk-10" value="" style="edgeStyle=orthogonalEdgeStyle;rounded=0;orthogonalLoop=1;jettySize=auto;html=1;" parent="1" source="_iVS5pnN7EHjjZFN2fSk-2" target="_iVS5pnN7EHjjZFN2fSk-9" edge="1">
          <mxGeometry relative="1" as="geometry" />
        </mxCell>
        <mxCell id="_iVS5pnN7EHjjZFN2fSk-2" value="Начало" style="rounded=1;whiteSpace=wrap;html=1;" parent="1" vertex="1">
          <mxGeometry x="90" y="10" width="120" height="60" as="geometry" />
        </mxCell>
        <mxCell id="_iVS5pnN7EHjjZFN2fSk-12" value="" style="edgeStyle=orthogonalEdgeStyle;rounded=0;orthogonalLoop=1;jettySize=auto;html=1;" parent="1" source="_iVS5pnN7EHjjZFN2fSk-14" target="_iVS5pnN7EHjjZFN2fSk-11" edge="1">
          <mxGeometry relative="1" as="geometry" />
        </mxCell>
        <mxCell id="_iVS5pnN7EHjjZFN2fSk-9" value="Введите размер строкового массива" style="shape=parallelogram;perimeter=parallelogramPerimeter;whiteSpace=wrap;html=1;fixedSize=1;" parent="1" vertex="1">
          <mxGeometry x="10" y="110" width="280" height="60" as="geometry" />
        </mxCell>
        <mxCell id="_iVS5pnN7EHjjZFN2fSk-16" value="" style="edgeStyle=orthogonalEdgeStyle;rounded=0;orthogonalLoop=1;jettySize=auto;html=1;" parent="1" source="_iVS5pnN7EHjjZFN2fSk-11" target="_iVS5pnN7EHjjZFN2fSk-15" edge="1">
          <mxGeometry relative="1" as="geometry" />
        </mxCell>
        <mxCell id="_iVS5pnN7EHjjZFN2fSk-11" value="Cоздание массива array размером arraySize" style="whiteSpace=wrap;html=1;" parent="1" vertex="1">
          <mxGeometry x="30" y="310" width="240" height="60" as="geometry" />
        </mxCell>
        <mxCell id="_iVS5pnN7EHjjZFN2fSk-13" value="" style="edgeStyle=orthogonalEdgeStyle;rounded=0;orthogonalLoop=1;jettySize=auto;html=1;" parent="1" source="_iVS5pnN7EHjjZFN2fSk-9" target="_iVS5pnN7EHjjZFN2fSk-14" edge="1">
          <mxGeometry relative="1" as="geometry">
            <mxPoint x="150" y="170" as="sourcePoint" />
            <mxPoint x="150" y="350" as="targetPoint" />
          </mxGeometry>
        </mxCell>
        <mxCell id="_iVS5pnN7EHjjZFN2fSk-14" value="arraySize" style="shape=parallelogram;perimeter=parallelogramPerimeter;whiteSpace=wrap;html=1;fixedSize=1;" parent="1" vertex="1">
          <mxGeometry x="90" y="200" width="120" height="60" as="geometry" />
        </mxCell>
        <mxCell id="_iVS5pnN7EHjjZFN2fSk-18" value="" style="edgeStyle=orthogonalEdgeStyle;rounded=0;orthogonalLoop=1;jettySize=auto;html=1;" parent="1" source="_iVS5pnN7EHjjZFN2fSk-15" target="_iVS5pnN7EHjjZFN2fSk-17" edge="1">
          <mxGeometry relative="1" as="geometry" />
        </mxCell>
        <mxCell id="_iVS5pnN7EHjjZFN2fSk-15" value="Вывод массива array" style="shape=document;whiteSpace=wrap;html=1;boundedLbl=1;" parent="1" vertex="1">
          <mxGeometry x="90" y="410" width="120" height="80" as="geometry" />
        </mxCell>
        <mxCell id="_iVS5pnN7EHjjZFN2fSk-23" value="" style="edgeStyle=orthogonalEdgeStyle;rounded=0;orthogonalLoop=1;jettySize=auto;html=1;" parent="1" source="_iVS5pnN7EHjjZFN2fSk-17" target="_iVS5pnN7EHjjZFN2fSk-22" edge="1">
          <mxGeometry relative="1" as="geometry" />
        </mxCell>
        <mxCell id="_iVS5pnN7EHjjZFN2fSk-17" value="Проверка размера элементов массива array&lt;br&gt;CheckArrayStr&lt;br&gt;&lt;br&gt;&amp;nbsp;Запись результата в новый массив&amp;nbsp;&amp;nbsp;resultArray" style="whiteSpace=wrap;html=1;" parent="1" vertex="1">
          <mxGeometry x="20" y="530" width="260" height="90" as="geometry" />
        </mxCell>
        <mxCell id="_iVS5pnN7EHjjZFN2fSk-27" value="" style="edgeStyle=orthogonalEdgeStyle;rounded=0;orthogonalLoop=1;jettySize=auto;html=1;" parent="1" source="_iVS5pnN7EHjjZFN2fSk-21" target="_iVS5pnN7EHjjZFN2fSk-26" edge="1">
          <mxGeometry relative="1" as="geometry" />
        </mxCell>
        <mxCell id="_iVS5pnN7EHjjZFN2fSk-21" value="Проверка размера элементов массива array&lt;br&gt;CheckArrayStr" style="rounded=1;whiteSpace=wrap;html=1;" parent="1" vertex="1">
          <mxGeometry x="570" y="10" width="190" height="60" as="geometry" />
        </mxCell>
        <mxCell id="_iVS5pnN7EHjjZFN2fSk-25" value="" style="edgeStyle=orthogonalEdgeStyle;rounded=0;orthogonalLoop=1;jettySize=auto;html=1;" parent="1" source="_iVS5pnN7EHjjZFN2fSk-22" target="_iVS5pnN7EHjjZFN2fSk-24" edge="1">
          <mxGeometry relative="1" as="geometry" />
        </mxCell>
        <mxCell id="_iVS5pnN7EHjjZFN2fSk-22" value="Вывод массива resultArray" style="shape=document;whiteSpace=wrap;html=1;boundedLbl=1;" parent="1" vertex="1">
          <mxGeometry x="90" y="660" width="120" height="80" as="geometry" />
        </mxCell>
        <mxCell id="_iVS5pnN7EHjjZFN2fSk-24" value="Конец" style="rounded=1;whiteSpace=wrap;html=1;" parent="1" vertex="1">
          <mxGeometry x="90" y="780" width="120" height="60" as="geometry" />
        </mxCell>
        <mxCell id="_iVS5pnN7EHjjZFN2fSk-29" value="" style="edgeStyle=orthogonalEdgeStyle;rounded=0;orthogonalLoop=1;jettySize=auto;html=1;" parent="1" source="_iVS5pnN7EHjjZFN2fSk-26" target="_iVS5pnN7EHjjZFN2fSk-28" edge="1">
          <mxGeometry relative="1" as="geometry" />
        </mxCell>
        <mxCell id="_iVS5pnN7EHjjZFN2fSk-26" value="Создание временного массива массива размером array" style="rounded=0;whiteSpace=wrap;html=1;" parent="1" vertex="1">
          <mxGeometry x="570" y="100" width="190" height="60" as="geometry" />
        </mxCell>
        <mxCell id="_iVS5pnN7EHjjZFN2fSk-31" value="" style="edgeStyle=orthogonalEdgeStyle;rounded=0;orthogonalLoop=1;jettySize=auto;html=1;" parent="1" source="_iVS5pnN7EHjjZFN2fSk-28" target="_iVS5pnN7EHjjZFN2fSk-30" edge="1">
          <mxGeometry relative="1" as="geometry" />
        </mxCell>
        <mxCell id="_iVS5pnN7EHjjZFN2fSk-28" value="Инициализация массива resultArray[]&lt;br&gt;i=0&lt;br&gt;index=0" style="whiteSpace=wrap;html=1;rounded=0;" parent="1" vertex="1">
          <mxGeometry x="530" y="190" width="270" height="60" as="geometry" />
        </mxCell>
        <mxCell id="_iVS5pnN7EHjjZFN2fSk-39" value="" style="edgeStyle=orthogonalEdgeStyle;rounded=0;orthogonalLoop=1;jettySize=auto;html=1;" parent="1" source="_iVS5pnN7EHjjZFN2fSk-30" target="_iVS5pnN7EHjjZFN2fSk-38" edge="1">
          <mxGeometry relative="1" as="geometry">
            <Array as="points">
              <mxPoint x="800" y="320" />
              <mxPoint x="800" y="710" />
              <mxPoint x="680" y="710" />
            </Array>
          </mxGeometry>
        </mxCell>
        <mxCell id="_iVS5pnN7EHjjZFN2fSk-41" value="NO" style="edgeLabel;html=1;align=center;verticalAlign=middle;resizable=0;points=[];" parent="_iVS5pnN7EHjjZFN2fSk-39" vertex="1" connectable="0">
          <mxGeometry x="-0.5706" y="-2" relative="1" as="geometry">
            <mxPoint as="offset" />
          </mxGeometry>
        </mxCell>
        <mxCell id="_iVS5pnN7EHjjZFN2fSk-46" style="edgeStyle=orthogonalEdgeStyle;rounded=0;orthogonalLoop=1;jettySize=auto;html=1;entryX=0.5;entryY=0;entryDx=0;entryDy=0;" parent="1" source="_iVS5pnN7EHjjZFN2fSk-30" target="_iVS5pnN7EHjjZFN2fSk-42" edge="1">
          <mxGeometry relative="1" as="geometry" />
        </mxCell>
        <mxCell id="_iVS5pnN7EHjjZFN2fSk-47" value="Yes" style="edgeLabel;html=1;align=center;verticalAlign=middle;resizable=0;points=[];" parent="_iVS5pnN7EHjjZFN2fSk-46" vertex="1" connectable="0">
          <mxGeometry x="-0.15" relative="1" as="geometry">
            <mxPoint as="offset" />
          </mxGeometry>
        </mxCell>
        <mxCell id="_iVS5pnN7EHjjZFN2fSk-30" value="i&amp;lt;array.Length" style="rhombus;whiteSpace=wrap;html=1;" parent="1" vertex="1">
          <mxGeometry x="575" y="280" width="190" height="80" as="geometry" />
        </mxCell>
        <mxCell id="_iVS5pnN7EHjjZFN2fSk-54" style="edgeStyle=orthogonalEdgeStyle;rounded=0;orthogonalLoop=1;jettySize=auto;html=1;" parent="1" source="_iVS5pnN7EHjjZFN2fSk-32" edge="1">
          <mxGeometry relative="1" as="geometry">
            <mxPoint x="530" y="490" as="targetPoint" />
          </mxGeometry>
        </mxCell>
        <mxCell id="_iVS5pnN7EHjjZFN2fSk-32" value="resultArray[index] = array[i]&lt;br&gt;index++" style="rounded=0;whiteSpace=wrap;html=1;" parent="1" vertex="1">
          <mxGeometry x="570" y="610" width="167.5" height="70" as="geometry" />
        </mxCell>
        <mxCell id="_iVS5pnN7EHjjZFN2fSk-57" value="" style="edgeStyle=orthogonalEdgeStyle;rounded=0;orthogonalLoop=1;jettySize=auto;html=1;" parent="1" source="_iVS5pnN7EHjjZFN2fSk-38" target="_iVS5pnN7EHjjZFN2fSk-56" edge="1">
          <mxGeometry relative="1" as="geometry" />
        </mxCell>
        <mxCell id="_iVS5pnN7EHjjZFN2fSk-38" value="уменьшение массива&lt;br&gt;resultArray до index элементов" style="whiteSpace=wrap;html=1;" parent="1" vertex="1">
          <mxGeometry x="600" y="750" width="200" height="60" as="geometry" />
        </mxCell>
        <mxCell id="_iVS5pnN7EHjjZFN2fSk-51" style="edgeStyle=orthogonalEdgeStyle;rounded=0;orthogonalLoop=1;jettySize=auto;html=1;" parent="1" source="_iVS5pnN7EHjjZFN2fSk-42" target="_iVS5pnN7EHjjZFN2fSk-49" edge="1">
          <mxGeometry relative="1" as="geometry">
            <Array as="points">
              <mxPoint x="530" y="490" />
            </Array>
          </mxGeometry>
        </mxCell>
        <mxCell id="_iVS5pnN7EHjjZFN2fSk-55" value="No" style="edgeLabel;html=1;align=center;verticalAlign=middle;resizable=0;points=[];" parent="_iVS5pnN7EHjjZFN2fSk-51" vertex="1" connectable="0">
          <mxGeometry x="-0.4545" relative="1" as="geometry">
            <mxPoint as="offset" />
          </mxGeometry>
        </mxCell>
        <mxCell id="_iVS5pnN7EHjjZFN2fSk-42" value="array[i].Length &amp;lt;= 3" style="rhombus;whiteSpace=wrap;html=1;" parent="1" vertex="1">
          <mxGeometry x="590" y="450" width="160" height="80" as="geometry" />
        </mxCell>
        <mxCell id="_iVS5pnN7EHjjZFN2fSk-43" style="edgeStyle=orthogonalEdgeStyle;rounded=0;orthogonalLoop=1;jettySize=auto;html=1;entryX=0.597;entryY=0.014;entryDx=0;entryDy=0;entryPerimeter=0;" parent="1" source="_iVS5pnN7EHjjZFN2fSk-42" target="_iVS5pnN7EHjjZFN2fSk-32" edge="1">
          <mxGeometry relative="1" as="geometry" />
        </mxCell>
        <mxCell id="_iVS5pnN7EHjjZFN2fSk-44" value="Yes" style="edgeLabel;html=1;align=center;verticalAlign=middle;resizable=0;points=[];" parent="_iVS5pnN7EHjjZFN2fSk-43" vertex="1" connectable="0">
          <mxGeometry x="-0.1144" y="-2" relative="1" as="geometry">
            <mxPoint as="offset" />
          </mxGeometry>
        </mxCell>
        <mxCell id="_iVS5pnN7EHjjZFN2fSk-53" style="edgeStyle=orthogonalEdgeStyle;rounded=0;orthogonalLoop=1;jettySize=auto;html=1;entryX=0;entryY=0.5;entryDx=0;entryDy=0;" parent="1" source="_iVS5pnN7EHjjZFN2fSk-49" target="_iVS5pnN7EHjjZFN2fSk-30" edge="1">
          <mxGeometry relative="1" as="geometry" />
        </mxCell>
        <mxCell id="_iVS5pnN7EHjjZFN2fSk-49" value="i++" style="rounded=0;whiteSpace=wrap;html=1;" parent="1" vertex="1">
          <mxGeometry x="490" y="400" width="120" height="40" as="geometry" />
        </mxCell>
        <mxCell id="_iVS5pnN7EHjjZFN2fSk-56" value="Конец&lt;br&gt;CheckArrayStr" style="rounded=1;whiteSpace=wrap;html=1;" parent="1" vertex="1">
          <mxGeometry x="640" y="850" width="120" height="60" as="geometry" />
        </mxCell>
        <mxCell id="_iVS5pnN7EHjjZFN2fSk-76" value="" style="edgeStyle=orthogonalEdgeStyle;rounded=0;orthogonalLoop=1;jettySize=auto;html=1;" parent="1" source="_iVS5pnN7EHjjZFN2fSk-58" target="_iVS5pnN7EHjjZFN2fSk-75" edge="1">
          <mxGeometry relative="1" as="geometry" />
        </mxCell>
        <mxCell id="_iVS5pnN7EHjjZFN2fSk-58" value="Вывод массива&lt;br&gt;PrintArrayStr" style="rounded=1;whiteSpace=wrap;html=1;" parent="1" vertex="1">
          <mxGeometry x="340" y="10" width="120" height="60" as="geometry" />
        </mxCell>
        <mxCell id="_iVS5pnN7EHjjZFN2fSk-64" value="" style="edgeStyle=orthogonalEdgeStyle;rounded=0;orthogonalLoop=1;jettySize=auto;html=1;" parent="1" source="_iVS5pnN7EHjjZFN2fSk-59" target="_iVS5pnN7EHjjZFN2fSk-63" edge="1">
          <mxGeometry relative="1" as="geometry" />
        </mxCell>
        <mxCell id="_iVS5pnN7EHjjZFN2fSk-59" value="вывести i элемент массива" style="shape=document;whiteSpace=wrap;html=1;boundedLbl=1;rounded=1;" parent="1" vertex="1">
          <mxGeometry x="340" y="340" width="120" height="80" as="geometry" />
        </mxCell>
        <mxCell id="_iVS5pnN7EHjjZFN2fSk-66" value="" style="edgeStyle=orthogonalEdgeStyle;rounded=0;orthogonalLoop=1;jettySize=auto;html=1;" parent="1" source="_iVS5pnN7EHjjZFN2fSk-61" target="_iVS5pnN7EHjjZFN2fSk-59" edge="1">
          <mxGeometry relative="1" as="geometry" />
        </mxCell>
        <mxCell id="_iVS5pnN7EHjjZFN2fSk-67" value="YES" style="edgeLabel;html=1;align=center;verticalAlign=middle;resizable=0;points=[];" parent="_iVS5pnN7EHjjZFN2fSk-66" vertex="1" connectable="0">
          <mxGeometry x="0.2" y="-2" relative="1" as="geometry">
            <mxPoint as="offset" />
          </mxGeometry>
        </mxCell>
        <mxCell id="_iVS5pnN7EHjjZFN2fSk-68" style="edgeStyle=orthogonalEdgeStyle;rounded=0;orthogonalLoop=1;jettySize=auto;html=1;" parent="1" source="_iVS5pnN7EHjjZFN2fSk-61" edge="1">
          <mxGeometry relative="1" as="geometry">
            <mxPoint x="400" y="600" as="targetPoint" />
            <Array as="points">
              <mxPoint x="480" y="270" />
              <mxPoint x="480" y="530" />
              <mxPoint x="400" y="530" />
            </Array>
          </mxGeometry>
        </mxCell>
        <mxCell id="wde-GjuEJHdbOBMrFFRb-1" value="NO&lt;br&gt;" style="edgeLabel;html=1;align=center;verticalAlign=middle;resizable=0;points=[];" vertex="1" connectable="0" parent="_iVS5pnN7EHjjZFN2fSk-68">
          <mxGeometry x="-0.6429" y="-2" relative="1" as="geometry">
            <mxPoint y="-15" as="offset" />
          </mxGeometry>
        </mxCell>
        <mxCell id="_iVS5pnN7EHjjZFN2fSk-61" value="i&amp;lt;размер масива" style="rhombus;whiteSpace=wrap;html=1;" parent="1" vertex="1">
          <mxGeometry x="330" y="230" width="140" height="80" as="geometry" />
        </mxCell>
        <mxCell id="_iVS5pnN7EHjjZFN2fSk-72" value="" style="edgeStyle=orthogonalEdgeStyle;rounded=0;orthogonalLoop=1;jettySize=auto;html=1;" parent="1" source="_iVS5pnN7EHjjZFN2fSk-62" target="_iVS5pnN7EHjjZFN2fSk-61" edge="1">
          <mxGeometry relative="1" as="geometry" />
        </mxCell>
        <mxCell id="_iVS5pnN7EHjjZFN2fSk-62" value="i=0" style="rounded=0;whiteSpace=wrap;html=1;" parent="1" vertex="1">
          <mxGeometry x="340" y="170" width="120" height="40" as="geometry" />
        </mxCell>
        <mxCell id="_iVS5pnN7EHjjZFN2fSk-65" style="edgeStyle=orthogonalEdgeStyle;rounded=0;orthogonalLoop=1;jettySize=auto;html=1;entryX=0;entryY=0.5;entryDx=0;entryDy=0;" parent="1" source="_iVS5pnN7EHjjZFN2fSk-63" target="_iVS5pnN7EHjjZFN2fSk-61" edge="1">
          <mxGeometry relative="1" as="geometry">
            <Array as="points">
              <mxPoint x="310" y="480" />
              <mxPoint x="310" y="270" />
            </Array>
          </mxGeometry>
        </mxCell>
        <mxCell id="_iVS5pnN7EHjjZFN2fSk-63" value="i++" style="rounded=0;whiteSpace=wrap;html=1;" parent="1" vertex="1">
          <mxGeometry x="340" y="450" width="120" height="60" as="geometry" />
        </mxCell>
        <mxCell id="_iVS5pnN7EHjjZFN2fSk-70" value="Конец&amp;nbsp;PrintArrayStr" style="rounded=1;whiteSpace=wrap;html=1;" parent="1" vertex="1">
          <mxGeometry x="340" y="660" width="120" height="60" as="geometry" />
        </mxCell>
        <mxCell id="_iVS5pnN7EHjjZFN2fSk-74" value="" style="edgeStyle=orthogonalEdgeStyle;rounded=0;orthogonalLoop=1;jettySize=auto;html=1;" parent="1" source="_iVS5pnN7EHjjZFN2fSk-73" target="_iVS5pnN7EHjjZFN2fSk-70" edge="1">
          <mxGeometry relative="1" as="geometry" />
        </mxCell>
        <mxCell id="_iVS5pnN7EHjjZFN2fSk-73" value="Вывод &quot;]&quot;" style="shape=document;whiteSpace=wrap;html=1;boundedLbl=1;" parent="1" vertex="1">
          <mxGeometry x="340" y="555" width="120" height="60" as="geometry" />
        </mxCell>
        <mxCell id="_iVS5pnN7EHjjZFN2fSk-77" value="" style="edgeStyle=orthogonalEdgeStyle;rounded=0;orthogonalLoop=1;jettySize=auto;html=1;" parent="1" source="_iVS5pnN7EHjjZFN2fSk-75" target="_iVS5pnN7EHjjZFN2fSk-62" edge="1">
          <mxGeometry relative="1" as="geometry" />
        </mxCell>
        <mxCell id="_iVS5pnN7EHjjZFN2fSk-75" value="Вывод &quot;[&quot;" style="shape=document;whiteSpace=wrap;html=1;boundedLbl=1;" parent="1" vertex="1">
          <mxGeometry x="340" y="90" width="120" height="60" as="geometry" />
        </mxCell>
      </root>
    </mxGraphModel>
  </diagram>
</mxfile>
